<svg aria-hidden="true" style="position: absolute; width: 0; height: 0; overflow: hidden;" version="1.1" xmlns="http://www.w3.org/2000/svg" xmlns:xlink="http://www.w3.org/1999/xlink">
<defs>
<symbol id="facebook" viewBox="0 0 32 32">
<path d="M21.329 5.313h2.921v-5.088c-0.504-0.069-2.237-0.225-4.256-0.225-4.212 0-7.097 2.649-7.097 7.519v4.481h-4.648v5.688h4.648v14.312h5.699v-14.311h4.46l0.708-5.688h-5.169v-3.919c0.001-1.644 0.444-2.769 2.735-2.769z"></path>
</symbol>
<symbol id="icon-icon-instagram" viewBox="0 0 32 32">
<path d="M30.198 1.493c-0.947-0.947-2.221-1.493-3.64-1.493h-21.115c-1.42 0-2.694 0.582-3.64 1.493-0.947 0.947-1.493 2.221-1.493 3.64v21.734c0 1.42 0.582 2.694 1.493 3.64 0.947 0.947 2.221 1.493 3.64 1.493h21.115c1.42 0 2.694-0.582 3.64-1.493 0.947-0.947 1.493-2.221 1.493-3.64v-21.734c0-1.42-0.582-2.694-1.493-3.64zM29.761 26.867c-0.036 0.91-0.364 1.675-0.947 2.257s-1.383 0.947-2.257 0.947h-21.115c-0.874 0-1.675-0.364-2.257-0.947s-0.947-1.383-0.947-2.257v-15.618h5.133c-0.801 1.42-1.274 3.022-1.274 4.769 0 2.73 1.092 5.206 2.912 6.99 1.784 1.784 4.259 2.912 6.99 2.912s5.206-1.092 6.99-2.912c1.784-1.784 2.912-4.259 2.912-6.99 0-1.747-0.473-3.349-1.274-4.769h5.133v15.618zM8.064 16.018c0-2.184 0.874-4.187 2.33-5.606 1.42-1.42 3.422-2.33 5.606-2.33s4.187 0.874 5.606 2.33c1.42 1.42 2.33 3.422 2.33 5.606s-0.874 4.187-2.33 5.606c-1.42 1.42-3.422 2.33-5.606 2.33s-4.187-0.874-5.606-2.33c-1.42-1.42-2.33-3.422-2.33-5.606zM29.761 9.32h-6.553c-0.073-0.073-0.146-0.182-0.218-0.291-1.784-1.784-4.259-2.912-6.99-2.912s-5.206 1.092-6.99 2.912c-0.073 0.073-0.146 0.182-0.218 0.291h-6.516v-4.187c0-0.874 0.328-1.638 0.91-2.221s1.383-0.947 2.257-0.947h21.115c0.874 0 1.675 0.364 2.257 0.947s0.947 1.383 0.947 2.257v4.15z"></path>
<path d="M27.795 5.898c0 1.046-0.848 1.893-1.893 1.893s-1.893-0.848-1.893-1.893c0-1.046 0.848-1.893 1.893-1.893s1.893 0.848 1.893 1.893z"></path>
<path d="M16 20.714c1.311 0 2.476-0.51 3.349-1.383 0.837-0.837 1.383-2.039 1.383-3.349s-0.51-2.476-1.383-3.349c-0.837-0.837-2.039-1.383-3.349-1.383s-2.476 0.51-3.349 1.383c-0.837 0.837-1.383 2.039-1.383 3.349s0.51 2.476 1.383 3.349c0.874 0.874 2.039 1.383 3.349 1.383zM14.034 14.052c0.51-0.51 1.201-0.801 1.966-0.801s1.456 0.291 1.966 0.801c0.51 0.51 0.801 1.201 0.801 1.966s-0.291 1.456-0.801 1.966c-0.51 0.51-1.201 0.801-1.966 0.801s-1.456-0.291-1.966-0.801c-0.51-0.51-0.801-1.201-0.801-1.966s0.328-1.456 0.801-1.966z"></path>
</symbol>
<symbol id="icon-icon-pinterest" viewBox="0 0 32 32">
<path d="M16.435 0c-8.772 0.001-13.435 5.621-13.435 11.749 0 2.841 1.588 6.387 4.131 7.511 0.725 0.327 0.629-0.072 1.253-2.459 0.049-0.199 0.024-0.371-0.136-0.556-3.635-4.204-0.709-12.847 7.668-12.847 12.124 0 9.859 16.776 2.109 16.776-1.997 0-3.485-1.568-3.015-3.508 0.571-2.311 1.688-4.795 1.688-6.46 0-4.197-6.253-3.575-6.253 1.987 0 1.719 0.608 2.879 0.608 2.879s-2.012 8.128-2.385 9.647c-0.632 2.571 0.085 6.732 0.148 7.091 0.039 0.197 0.26 0.26 0.384 0.097 0.199-0.26 2.631-3.729 3.312-6.237 0.248-0.913 1.265-4.62 1.265-4.62 0.671 1.211 2.604 2.224 4.664 2.224 6.128 0 10.557-5.387 10.557-12.071-0.021-6.408-5.505-11.203-12.564-11.203z"></path>
</symbol>
<symbol id="twitter" viewBox="0 0 32 32">
<path d="M32 6.078c-1.19 0.522-2.458 0.868-3.78 1.036 1.36-0.812 2.398-2.088 2.886-3.626-1.268 0.756-2.668 1.29-4.16 1.588-1.204-1.282-2.92-2.076-4.792-2.076-3.632 0-6.556 2.948-6.556 6.562 0 0.52 0.044 1.020 0.152 1.496-5.454-0.266-10.28-2.88-13.522-6.862-0.566 0.982-0.898 2.106-0.898 3.316 0 2.272 1.17 4.286 2.914 5.452-1.054-0.020-2.088-0.326-2.964-0.808 0 0.020 0 0.046 0 0.072 0 3.188 2.274 5.836 5.256 6.446-0.534 0.146-1.116 0.216-1.72 0.216-0.42 0-0.844-0.024-1.242-0.112 0.85 2.598 3.262 4.508 6.13 4.57-2.232 1.746-5.066 2.798-8.134 2.798-0.538 0-1.054-0.024-1.57-0.090 2.906 1.874 6.35 2.944 10.064 2.944 12.072 0 18.672-10 18.672-18.668 0-0.29-0.010-0.57-0.024-0.848 1.302-0.924 2.396-2.078 3.288-3.406z"></path>
</symbol>
</defs>
</svg>
